<svg width="23" height="23" viewBox="0 0 23 23" fill="none" xmlns="http://www.w3.org/2000/svg">
<path d="M22.8497 9.61716L22.7839 9.22299H21.8913C21.5343 9.22299 21.1773 9.22299 20.8109 9.22299C20.576 8.25635 20.2002 7.34602 19.674 6.50138L19.8243 6.35122C20.1438 6.03213 20.4538 5.71305 20.7827 5.40335L21.0739 5.1218L20.8391 4.79333C20.0968 3.77038 19.2042 2.87881 18.1801 2.15618L17.8513 1.92155L17.5694 2.21249C17.4003 2.38141 17.2312 2.55034 17.0621 2.71927C16.8554 2.91635 16.6581 3.12282 16.4608 3.32929C15.6058 2.81312 14.685 2.43772 13.7173 2.2031C13.7173 2.13741 13.7173 2.06233 13.7173 1.99663V1.24584C13.7173 1.04876 13.7173 0.851678 13.7173 0.635826V0.213506L13.3227 0.147812C12.1107 -0.0492706 10.8517 -0.0492706 9.6491 0.147812L9.2357 0.222891L9.25449 0.635826C9.26389 0.832908 9.26389 1.02999 9.25449 1.21769V1.48985V1.74324C9.25449 1.88402 9.25449 2.02479 9.25449 2.16556C8.28677 2.3908 7.37541 2.77558 6.52043 3.29175C6.31373 3.08528 6.11642 2.87881 5.90972 2.67235C5.7406 2.50342 5.58088 2.34387 5.41177 2.17495L5.1299 1.88402L4.80106 2.11864C3.77696 2.85066 2.8844 3.74222 2.14216 4.76517L1.92606 5.11241L2.21732 5.39396C2.49918 5.67551 2.79044 5.95705 3.0723 6.2386L3.32598 6.49199C2.80923 7.33663 2.42402 8.25635 2.18913 9.22299C1.82271 9.21361 1.45629 9.21361 1.10866 9.22299H0.216095L0.150327 9.61716C0.0469771 10.2366 0 10.8653 0 11.4941C0 12.1135 0.0469771 12.7423 0.150327 13.3617L0.206699 13.7184L0.573121 13.7559C0.610703 13.7559 0.638889 13.7559 0.695261 13.7653C0.995915 13.7653 1.29657 13.7653 1.59722 13.7653C1.79453 13.7653 1.99183 13.7653 2.18913 13.7653C2.42402 14.7413 2.80923 15.661 3.33538 16.515C3.13807 16.7121 2.93137 16.9092 2.73407 17.1157L2.32067 17.538C2.28309 17.5755 2.24551 17.6131 2.21732 17.6412L1.95425 17.9228L2.17974 18.2419C2.91258 19.2554 3.79575 20.1282 4.81046 20.8602L5.1299 21.0855L5.45874 20.7664C5.66544 20.5505 5.87214 20.3441 6.07884 20.1376C6.22917 19.9875 6.37949 19.8373 6.52982 19.6871C7.3848 20.2033 8.30556 20.5881 9.27328 20.8133C9.27328 21.0667 9.27328 21.3201 9.27328 21.5735C9.27328 21.8269 9.27328 22.0803 9.27328 22.3431V22.7841L9.66789 22.8498C10.2692 22.9437 10.8893 23 11.5 23C12.1107 23 12.7308 22.9531 13.3321 22.8498L13.7267 22.7841V22.3431C13.7267 22.0991 13.7267 21.855 13.7267 21.611C13.7267 21.3483 13.7267 21.0949 13.7267 20.8227C14.6944 20.5881 15.6152 20.2127 16.4702 19.6965C16.6111 19.8467 16.7614 19.9875 16.9024 20.1282C17.1185 20.3441 17.3346 20.5505 17.5507 20.7758L17.8325 21.1136L18.1895 20.8602C19.2042 20.1376 20.0968 19.2554 20.8203 18.2419L21.0458 17.9228L20.7827 17.6412C20.7451 17.6037 20.6981 17.5568 20.6511 17.5098L20.3129 17.172C20.0968 16.9561 19.8807 16.7403 19.6646 16.5244C20.1908 15.6704 20.576 14.7507 20.8109 13.7747C21.0082 13.7747 21.2055 13.7747 21.4028 13.7747C21.7034 13.7747 22.0041 13.7747 22.3141 13.7747C22.3611 13.7747 22.3987 13.7747 22.4363 13.7653L22.7933 13.7277L22.8497 13.3711C22.953 12.7705 23 12.1417 23 11.5035C23 10.8747 22.953 10.2366 22.8497 9.61716ZM21.9759 12.808C21.788 12.808 21.5907 12.808 21.4028 12.808C21.1021 12.808 20.8015 12.808 20.4914 12.808C20.4444 12.808 20.4069 12.808 20.3693 12.8174L20.031 12.8549L19.9653 13.1928C19.7398 14.3096 19.3076 15.3607 18.6687 16.3086L18.4808 16.5807L18.6687 16.8435C18.7063 16.8998 18.7533 16.9468 18.8096 17.0031C19.0821 17.2658 19.3546 17.538 19.627 17.8102L19.8056 17.9885C19.27 18.6736 18.6405 19.293 17.9547 19.8279C17.8231 19.6965 17.6916 19.5651 17.56 19.4337C17.3533 19.2273 17.156 19.0302 16.9493 18.8143C16.893 18.758 16.8366 18.7111 16.7802 18.6736L16.5172 18.5046L16.2635 18.6736C15.3145 19.3024 14.2716 19.7247 13.163 19.9499L12.8717 20.0062L12.7966 20.2972C12.7778 20.3816 12.7684 20.4755 12.7684 20.5787C12.7778 20.9166 12.7778 21.245 12.7778 21.5829C12.7778 21.7049 12.7778 21.8269 12.7778 21.9583C11.9322 22.0615 11.0584 22.0615 10.2128 21.9583C10.2128 21.8269 10.2128 21.6861 10.2128 21.5547C10.2128 21.2356 10.2128 20.9072 10.2222 20.5881C10.2222 20.4848 10.2128 20.391 10.194 20.2972L10.1189 20.0062L9.82761 19.9499C8.71895 19.7341 7.67606 19.3024 6.72712 18.6736L6.47345 18.5046L6.21038 18.6736C6.154 18.7111 6.09763 18.758 6.03186 18.8237C5.82516 19.0396 5.61846 19.246 5.41177 19.4525C5.28962 19.5745 5.16748 19.6965 5.03595 19.8279C4.34069 19.293 3.72059 18.6736 3.18505 17.9885L3.41054 17.7632C3.66422 17.5098 3.91789 17.2471 4.19036 16.9937C4.24673 16.9374 4.28431 16.8904 4.3219 16.8435L4.5098 16.5807L4.3219 16.3086C3.68301 15.3607 3.24142 14.319 3.02533 13.1928L2.95956 12.8549L2.61193 12.8174C2.57435 12.8174 2.52737 12.808 2.48979 12.808C2.30188 12.808 2.11397 12.808 1.92606 12.808C1.62541 12.808 1.32475 12.808 1.00531 12.808C0.948938 12.3669 0.920752 11.9258 0.920752 11.4941C0.920752 11.053 0.948938 10.6026 1.00531 10.1709H1.08987C1.50327 10.1709 1.93546 10.1709 2.34886 10.1803C2.4616 10.1896 2.56495 10.1709 2.6683 10.1521L2.95016 10.077L3.00654 9.78609C3.25082 8.67867 3.68301 7.64633 4.3125 6.71723L4.48162 6.46384L4.3219 6.20106C4.25613 6.09783 4.17157 6.00398 4.05882 5.90074L3.73938 5.58166C3.55147 5.39396 3.36356 5.20626 3.17565 5.01857C3.72059 4.32408 4.35008 3.6953 5.05474 3.15097C5.12051 3.21667 5.19567 3.29175 5.26144 3.35744C5.50572 3.60145 5.7594 3.84546 6.00368 4.10823C6.07884 4.18331 6.18219 4.27716 6.31373 4.33347L6.54861 4.42732L6.75531 4.28654C7.70425 3.66714 8.73775 3.24482 9.83701 3.02897L10.1095 2.97266L10.194 2.70988C10.2222 2.61604 10.2316 2.52219 10.2316 2.42834C10.2222 2.2031 10.2222 1.98725 10.2222 1.7714V1.518V1.31154V1.24584C10.2222 1.17076 10.2222 1.10507 10.2222 1.02999C11.0678 0.926757 11.9322 0.926757 12.7872 1.02999V1.03938V1.79955C12.7872 2.00602 12.7872 2.22187 12.7872 2.41895C12.7872 2.5128 12.7872 2.59727 12.8154 2.68173L12.8905 2.97266L13.1818 3.02897C14.281 3.24482 15.3145 3.66714 16.2635 4.28654L16.4702 4.42732L16.7051 4.33347C16.846 4.27716 16.9587 4.17393 17.0245 4.10823C17.2594 3.86422 17.5037 3.62022 17.748 3.37621C17.8231 3.30113 17.8983 3.22605 17.9734 3.16036C18.6687 3.70468 19.2982 4.32408 19.8431 5.02795C19.6176 5.25319 19.3922 5.47843 19.1667 5.70366L18.96 5.91951C18.8472 6.03213 18.7627 6.1166 18.6969 6.21983L18.5372 6.48261L18.7063 6.736C19.3264 7.67449 19.7586 8.70682 19.9841 9.80486L20.0404 10.0958L20.3317 10.1709C20.4257 10.199 20.529 10.2084 20.6511 10.199C21.0645 10.1803 21.4967 10.1896 21.9101 10.1896H21.9947C22.0511 10.6307 22.0792 11.0718 22.0792 11.5129C22.0605 11.9352 22.0323 12.3763 21.9759 12.808Z" fill="#48494B"/>
<path d="M15.2368 15H10.8511V14.1299L12.9209 11.9238C13.2051 11.6133 13.4146 11.3423 13.5493 11.1108C13.687 10.8794 13.7559 10.6597 13.7559 10.4517C13.7559 10.1675 13.6841 9.94482 13.5405 9.78369C13.397 9.61963 13.1919 9.5376 12.9253 9.5376C12.6382 9.5376 12.4111 9.63721 12.2441 9.83643C12.0801 10.0327 11.998 10.292 11.998 10.6143H10.7236C10.7236 10.2246 10.8159 9.86865 11.0005 9.54639C11.188 9.22412 11.4517 8.97217 11.7915 8.79053C12.1313 8.60596 12.5166 8.51367 12.9473 8.51367C13.6064 8.51367 14.1177 8.67188 14.481 8.98828C14.8472 9.30469 15.0303 9.75146 15.0303 10.3286C15.0303 10.645 14.9482 10.9673 14.7842 11.2954C14.6201 11.6235 14.3389 12.0059 13.9404 12.4424L12.4858 13.9761H15.2368V15Z" fill="#48494B"/>
<path d="M5 10.5714H6.44737L7.89474 14L10.7895 6H16" stroke="#48494B"/>
</svg>
