<svg width="20" height="20" viewBox="0 0 20 20" fill="none" xmlns="http://www.w3.org/2000/svg">
<path d="M13.333 17.5V15.8333C13.333 14.9493 12.9818 14.1014 12.3567 13.4763C11.7316 12.8512 10.8837 12.5 9.99967 12.5H4.16634C3.28229 12.5 2.43444 12.8512 1.80932 13.4763C1.1842 14.1014 0.833008 14.9493 0.833008 15.8333V17.5" stroke="#48494B" stroke-linecap="round" stroke-linejoin="round"/>
<path d="M7.08333 10.1667C8.92428 10.1667 10.4167 8.67428 10.4167 6.83333C10.4167 4.99238 8.92428 3.5 7.08333 3.5C5.24238 3.5 3.75 4.99238 3.75 6.83333C3.75 8.67428 5.24238 10.1667 7.08333 10.1667Z" stroke="#48494B" stroke-linecap="round" stroke-linejoin="round"/>
<path d="M15.667 7.66699V12.667" stroke="#48494B" stroke-linecap="round" stroke-linejoin="round"/>
<path d="M18.167 10.167H13.167" stroke="#48494B" stroke-linecap="round" stroke-linejoin="round"/>
</svg>
