<svg width="15" height="19" viewBox="0 0 15 19" fill="none" xmlns="http://www.w3.org/2000/svg">
<path d="M13.7344 10.3906C14.2263 10.3906 14.625 9.99188 14.625 9.5C14.625 9.00812 14.2263 8.60938 13.7344 8.60938C13.2425 8.60938 12.8438 9.00812 12.8438 9.5C12.8438 9.99188 13.2425 10.3906 13.7344 10.3906Z" fill="#48494B"/>
<path d="M13.1406 9.79688H11.3594C11.1961 9.79688 11.0625 9.66328 11.0625 9.5C11.0625 9.33672 11.1961 9.20312 11.3594 9.20312H13.1406C13.3039 9.20312 13.4375 9.33672 13.4375 9.5C13.4375 9.66328 13.3039 9.79688 13.1406 9.79688Z" fill="#48494B"/>
<path d="M13.7344 3.5625C14.2263 3.5625 14.625 3.16375 14.625 2.67188C14.625 2.18 14.2263 1.78125 13.7344 1.78125C13.2425 1.78125 12.8438 2.18 12.8438 2.67188C12.8438 3.16375 13.2425 3.5625 13.7344 3.5625Z" fill="#48494B"/>
<path d="M13.1406 2.96875H11.3594C11.1961 2.96875 11.0625 2.83516 11.0625 2.67188C11.0625 2.50859 11.1961 2.375 11.3594 2.375H13.1406C13.3039 2.375 13.4375 2.50859 13.4375 2.67188C13.4375 2.83516 13.3039 2.96875 13.1406 2.96875Z" fill="#48494B"/>
<path d="M13.7344 17.2188C14.2263 17.2188 14.625 16.82 14.625 16.3281C14.625 15.8362 14.2263 15.4375 13.7344 15.4375C13.2425 15.4375 12.8438 15.8362 12.8438 16.3281C12.8438 16.82 13.2425 17.2188 13.7344 17.2188Z" fill="#48494B"/>
<path d="M13.1406 16.625H11.3594C11.1961 16.625 11.0625 16.4914 11.0625 16.3281C11.0625 16.1648 11.1961 16.0312 11.3594 16.0312H13.1406C13.3039 16.0312 13.4375 16.1648 13.4375 16.3281C13.4375 16.4914 13.3039 16.625 13.1406 16.625Z" fill="#48494B"/>
<path d="M1.26562 10.3906C1.7575 10.3906 2.15625 9.99188 2.15625 9.5C2.15625 9.00812 1.7575 8.60938 1.26562 8.60938C0.773746 8.60938 0.375 9.00812 0.375 9.5C0.375 9.99188 0.773746 10.3906 1.26562 10.3906Z" fill="#48494B"/>
<path d="M3.9375 9.79688H1.5625C1.39922 9.79688 1.26562 9.66328 1.26562 9.5C1.26562 9.33672 1.39922 9.20312 1.5625 9.20312H3.9375C4.10078 9.20312 4.23438 9.33672 4.23438 9.5C4.23438 9.66328 4.10078 9.79688 3.9375 9.79688Z" fill="#48494B"/>
<path d="M1.26562 3.5625C1.7575 3.5625 2.15625 3.16375 2.15625 2.67188C2.15625 2.18 1.7575 1.78125 1.26562 1.78125C0.773746 1.78125 0.375 2.18 0.375 2.67188C0.375 3.16375 0.773746 3.5625 1.26562 3.5625Z" fill="#48494B"/>
<path d="M3.64062 2.96875H1.5625C1.39922 2.96875 1.26562 2.83516 1.26562 2.67188C1.26562 2.50859 1.39922 2.375 1.5625 2.375H3.64062C3.80391 2.375 3.9375 2.50859 3.9375 2.67188C3.9375 2.83516 3.80391 2.96875 3.64062 2.96875Z" fill="#48494B"/>
<path d="M1.26562 17.2188C1.7575 17.2188 2.15625 16.82 2.15625 16.3281C2.15625 15.8362 1.7575 15.4375 1.26562 15.4375C0.773746 15.4375 0.375 15.8362 0.375 16.3281C0.375 16.82 0.773746 17.2188 1.26562 17.2188Z" fill="#48494B"/>
<path d="M3.64062 16.625H1.5625C1.39922 16.625 1.26562 16.4914 1.26562 16.3281C1.26562 16.1648 1.39922 16.0312 1.5625 16.0312H3.64062C3.80391 16.0312 3.9375 16.1648 3.9375 16.3281C3.9375 16.4914 3.80391 16.625 3.64062 16.625Z" fill="#48494B"/>
<path d="M10.7656 8.90625H4.23438C4.07109 8.90625 3.9375 8.77266 3.9375 8.60938C3.9375 8.44609 4.07109 8.3125 4.23438 8.3125H10.7656C10.9289 8.3125 11.0625 8.44609 11.0625 8.60938C11.0625 8.77266 10.9289 8.90625 10.7656 8.90625Z" fill="#48494B"/>
<path d="M10.7656 10.6875H4.23438C4.07109 10.6875 3.9375 10.5539 3.9375 10.3906C3.9375 10.2273 4.07109 10.0938 4.23438 10.0938H10.7656C10.9289 10.0938 11.0625 10.2273 11.0625 10.3906C11.0625 10.5539 10.9289 10.6875 10.7656 10.6875Z" fill="#48494B"/>
<path d="M10.7656 15.7344H4.23438C4.07109 15.7344 3.9375 15.6008 3.9375 15.4375C3.9375 15.2742 4.07109 15.1406 4.23438 15.1406H10.7656C10.9289 15.1406 11.0625 15.2742 11.0625 15.4375C11.0625 15.6008 10.9289 15.7344 10.7656 15.7344Z" fill="#48494B"/>
<path d="M10.7656 17.5156H4.23438C4.07109 17.5156 3.9375 17.382 3.9375 17.2188C3.9375 17.0555 4.07109 16.9219 4.23438 16.9219H10.7656C10.9289 16.9219 11.0625 17.0555 11.0625 17.2188C11.0625 17.382 10.9289 17.5156 10.7656 17.5156Z" fill="#48494B"/>
<path d="M10.7656 3.85938H4.23438C4.07109 3.85938 3.9375 3.72578 3.9375 3.5625C3.9375 3.39922 4.07109 3.26562 4.23438 3.26562H10.7656C10.9289 3.26562 11.0625 3.39922 11.0625 3.5625C11.0625 3.72578 10.9289 3.85938 10.7656 3.85938Z" fill="#48494B"/>
<path d="M10.7656 2.07812H4.23438C4.07109 2.07812 3.9375 1.94453 3.9375 1.78125C3.9375 1.61797 4.07109 1.48438 4.23438 1.48438H10.7656C10.9289 1.48438 11.0625 1.61797 11.0625 1.78125C11.0625 1.94453 10.9289 2.07812 10.7656 2.07812Z" fill="#48494B"/>
<path d="M4.53125 2.375V1.1875C4.53125 0.860938 4.26406 0.59375 3.9375 0.59375C3.61094 0.59375 3.34375 0.860938 3.34375 1.1875V2.375C3.34375 3.6575 3.92563 4.80344 4.84 5.56641C5.21406 5.31406 5.62672 5.11219 6.06609 4.97266C5.15172 4.46797 4.53125 3.49422 4.53125 2.375Z" fill="#48494B"/>
<path d="M10.1597 13.4336C9.78562 13.6859 9.37297 13.8878 8.93359 14.0273C9.84797 14.532 10.4684 15.5058 10.4684 16.625V17.8125C10.4684 18.1391 10.7356 18.4062 11.0622 18.4062C11.3887 18.4062 11.6559 18.1391 11.6559 17.8125V16.625C11.6559 15.3425 11.0741 14.1966 10.1597 13.4336Z" fill="#48494B"/>
<path d="M10.4688 9.5C10.4688 11.1388 9.13875 12.4688 7.5 12.4688C5.20516 12.4688 3.34375 14.3302 3.34375 16.625V17.8125C3.34375 18.1391 3.61094 18.4062 3.9375 18.4062C4.26406 18.4062 4.53125 18.1391 4.53125 17.8125V16.625C4.53125 14.9862 5.86125 13.6562 7.5 13.6562C9.79484 13.6562 11.6562 11.7948 11.6562 9.5C11.6562 8.2175 11.0744 7.07156 10.16 6.30859C9.78594 6.56094 9.37328 6.76281 8.93391 6.90234C9.84828 7.40703 10.4688 8.38078 10.4688 9.5Z" fill="#48494B"/>
<path d="M11.0625 0.59375C10.7359 0.59375 10.4688 0.860938 10.4688 1.1875V2.375C10.4688 4.01375 9.13875 5.34375 7.5 5.34375C5.20516 5.34375 3.34375 7.20516 3.34375 9.5C3.34375 10.7825 3.92563 11.9284 4.84 12.6914C5.21406 12.4391 5.62672 12.2372 6.06609 12.0977C5.15172 11.593 4.53125 10.6192 4.53125 9.5C4.53125 7.86125 5.86125 6.53125 7.5 6.53125C9.79484 6.53125 11.6562 4.66984 11.6562 2.375V1.1875C11.6562 0.860938 11.3891 0.59375 11.0625 0.59375Z" fill="#48494B"/>
</svg>
