<svg width="20" height="20" viewBox="0 0 20 20" fill="none" xmlns="http://www.w3.org/2000/svg">
<path d="M16.667 1.66699H3.33366C2.41318 1.66699 1.66699 2.41318 1.66699 3.33366V6.66699C1.66699 7.58747 2.41318 8.33366 3.33366 8.33366H16.667C17.5875 8.33366 18.3337 7.58747 18.3337 6.66699V3.33366C18.3337 2.41318 17.5875 1.66699 16.667 1.66699Z" stroke="#25282B" stroke-linecap="round" stroke-linejoin="round"/>
<path d="M16.667 11.667H3.33366C2.41318 11.667 1.66699 12.4132 1.66699 13.3337V16.667C1.66699 17.5875 2.41318 18.3337 3.33366 18.3337H16.667C17.5875 18.3337 18.3337 17.5875 18.3337 16.667V13.3337C18.3337 12.4132 17.5875 11.667 16.667 11.667Z" stroke="#25282B" stroke-linecap="round" stroke-linejoin="round"/>
<path d="M5 5H5.01" stroke="#25282B" stroke-linecap="round" stroke-linejoin="round"/>
<path d="M5 15H5.01" stroke="#25282B" stroke-linecap="round" stroke-linejoin="round"/>
</svg>
