<svg width="17" height="17" viewBox="0 0 17 17" fill="none" xmlns="http://www.w3.org/2000/svg">
<path opacity="0.5" d="M8.50033 15.5834C12.4123 15.5834 15.5837 12.4121 15.5837 8.50008C15.5837 4.58806 12.4123 1.41675 8.50033 1.41675C4.58831 1.41675 1.41699 4.58806 1.41699 8.50008C1.41699 12.4121 4.58831 15.5834 8.50033 15.5834Z" stroke="#476AB4" stroke-width="1.4" stroke-linecap="round" stroke-linejoin="round"/>
<path opacity="0.5" d="M6.43848 6.37492C6.60501 5.90151 6.93371 5.50232 7.36636 5.24805C7.79901 4.99378 8.30769 4.90083 8.80231 4.98567C9.29692 5.07051 9.74555 5.32766 10.0687 5.71158C10.3919 6.0955 10.5688 6.58141 10.5681 7.08325C10.5681 8.49992 8.44306 9.20825 8.44306 9.20825" stroke="#476AB4" stroke-width="1.4" stroke-linecap="round" stroke-linejoin="round"/>
<path opacity="0.5" d="M8.5 12.0417H8.51" stroke="#476AB4" stroke-width="1.4" stroke-linecap="round" stroke-linejoin="round"/>
</svg>
