<svg width="28" height="28" viewBox="0 0 28 28" fill="none" xmlns="http://www.w3.org/2000/svg">
<path opacity="0.5" d="M14.0007 25.6668C20.444 25.6668 25.6673 20.4435 25.6673 14.0002C25.6673 7.55684 20.444 2.3335 14.0007 2.3335C7.55733 2.3335 2.33398 7.55684 2.33398 14.0002C2.33398 20.4435 7.55733 25.6668 14.0007 25.6668Z" stroke="#476AB4" stroke-width="1.4" stroke-linecap="round" stroke-linejoin="round"/>
<path opacity="0.5" d="M10.6045 10.5002C10.8788 9.72046 11.4202 9.06297 12.1328 8.64416C12.8454 8.22536 13.6832 8.07227 14.4979 8.21201C15.3125 8.35174 16.0514 8.77529 16.5837 9.40763C17.1161 10.04 17.4074 10.8403 17.4062 11.6668C17.4062 14.0002 13.9062 15.1668 13.9062 15.1668" stroke="#476AB4" stroke-width="1.4" stroke-linecap="round" stroke-linejoin="round"/>
<path opacity="0.5" d="M14 19.8335H14.0165" stroke="#476AB4" stroke-width="1.4" stroke-linecap="round" stroke-linejoin="round"/>
</svg>
