<svg width="14" height="9" viewBox="0 0 14 9" fill="none" xmlns="http://www.w3.org/2000/svg">
<path fill-rule="evenodd" clip-rule="evenodd" d="M13.7907 0.321471C13.8652 0.408724 13.9217 0.509822 13.9571 0.618993C13.9926 0.728165 14.0063 0.843271 13.9974 0.957739C13.9885 1.07221 13.9572 1.1838 13.9053 1.28613C13.8534 1.38847 13.7819 1.47955 13.6949 1.55417L5.33584 8.74929C5.12851 8.92655 4.8604 9.01569 4.58855 8.99773C4.3167 8.97977 4.06256 8.85613 3.8802 8.65312L0.228031 4.6228C0.150767 4.53785 0.0909431 4.43846 0.0519753 4.33031C0.0130075 4.22216 -0.00434135 4.10737 0.000919703 3.9925C0.00618075 3.87763 0.0339487 3.76492 0.0826376 3.66081C0.131327 3.5567 0.199983 3.46323 0.284687 3.38573C0.369392 3.30824 0.468485 3.24823 0.576309 3.20915C0.684134 3.17006 0.798578 3.15266 0.913107 3.15794C1.02764 3.16322 1.14001 3.19107 1.2438 3.2399C1.3476 3.28874 1.44079 3.3576 1.51806 3.44256L4.71698 6.93958L12.5617 0.199076C12.6504 0.125961 12.7525 0.0711168 12.8623 0.0376885C12.9721 0.0042603 13.0874 -0.00709372 13.2016 0.00427794C13.3158 0.0156496 13.4266 0.049523 13.5277 0.103955C13.6288 0.158387 13.7182 0.232306 13.7907 0.321471Z" fill="#1C48A3"/>
</svg>
