<svg width="23" height="26" viewBox="0 0 23 26" fill="none" xmlns="http://www.w3.org/2000/svg">
<circle cx="11.5" cy="14.5" r="11" stroke="#1C48A3"/>
<path d="M10.6641 12.3516L12.2969 12.3516L12.4766 20.375L10.4766 20.375L10.6641 12.3516ZM12.5312 9.89844C12.5312 10.1953 12.4349 10.4401 12.2422 10.6328C12.0495 10.8307 11.7865 10.9297 11.4531 10.9297C11.1198 10.9297 10.8568 10.8307 10.6641 10.6328C10.4714 10.4401 10.375 10.1953 10.375 9.89844C10.375 9.61198 10.4687 9.3724 10.6562 9.17969C10.8437 8.98698 11.1094 8.89063 11.4531 8.89063C11.7969 8.89063 12.0625 8.98698 12.25 9.17969C12.4375 9.3724 12.5312 9.61198 12.5312 9.89844Z" fill="#1C48A3"/>
</svg>
